<svg width="186" height="30" viewBox="0 0 186 30" fill="none" xmlns="http://www.w3.org/2000/svg">
<path d="M9.15943 29.28C7.4561 29.28 5.93943 28.9883 4.60943 28.405C3.27943 27.8217 2.22943 27.0283 1.45943 26.025C0.689434 24.9983 0.257767 23.855 0.164434 22.595H6.07943C6.14943 23.2717 6.46443 23.82 7.02443 24.24C7.58443 24.66 8.27277 24.87 9.08943 24.87C9.8361 24.87 10.4078 24.73 10.8044 24.45C11.2244 24.1467 11.4344 23.7617 11.4344 23.295C11.4344 22.735 11.1428 22.3267 10.5594 22.07C9.9761 21.79 9.0311 21.4867 7.72443 21.16C6.32443 20.8333 5.15777 20.495 4.22443 20.145C3.2911 19.7717 2.4861 19.2 1.80943 18.43C1.13277 17.6367 0.794434 16.575 0.794434 15.245C0.794434 14.125 1.09777 13.11 1.70443 12.2C2.33443 11.2667 3.24443 10.5317 4.43443 9.995C5.64777 9.45833 7.08277 9.19 8.73943 9.19C11.1894 9.19 13.1144 9.79667 14.5144 11.01C15.9378 12.2233 16.7544 13.8333 16.9644 15.84H11.4344C11.3411 15.1633 11.0378 14.6267 10.5244 14.23C10.0344 13.8333 9.3811 13.635 8.56443 13.635C7.86443 13.635 7.32777 13.775 6.95443 14.055C6.5811 14.3117 6.39443 14.6733 6.39443 15.14C6.39443 15.7 6.6861 16.12 7.26943 16.4C7.8761 16.68 8.80943 16.96 10.0694 17.24C11.5161 17.6133 12.6944 17.9867 13.6044 18.36C14.5144 18.71 15.3078 19.2933 15.9844 20.11C16.6844 20.9033 17.0461 21.9767 17.0694 23.33C17.0694 24.4733 16.7428 25.5 16.0894 26.41C15.4594 27.2967 14.5378 27.9967 13.3244 28.51C12.1344 29.0233 10.7461 29.28 9.15943 29.28ZM31.616 23.925V29H28.571C26.401 29 24.7094 28.475 23.496 27.425C22.2827 26.3517 21.676 24.6133 21.676 22.21V14.44H19.296V9.47H21.676V4.71H27.661V9.47H31.581V14.44H27.661V22.28C27.661 22.8633 27.801 23.2833 28.081 23.54C28.361 23.7967 28.8277 23.925 29.481 23.925H31.616ZM33.7598 19.2C33.7598 17.1933 34.1331 15.4317 34.8798 13.915C35.6498 12.3983 36.6881 11.2317 37.9948 10.415C39.3015 9.59833 40.7598 9.19 42.3698 9.19C43.7465 9.19 44.9481 9.47 45.9748 10.03C47.0248 10.59 47.8298 11.325 48.3898 12.235V9.47H54.3748V29H48.3898V26.235C47.8065 27.145 46.9898 27.88 45.9398 28.44C44.9131 29 43.7115 29.28 42.3348 29.28C40.7481 29.28 39.3015 28.8717 37.9948 28.055C36.6881 27.215 35.6498 26.0367 34.8798 24.52C34.1331 22.98 33.7598 21.2067 33.7598 19.2ZM48.3898 19.235C48.3898 17.7417 47.9698 16.5633 47.1298 15.7C46.3131 14.8367 45.3098 14.405 44.1198 14.405C42.9298 14.405 41.9148 14.8367 41.0748 15.7C40.2581 16.54 39.8498 17.7067 39.8498 19.2C39.8498 20.6933 40.2581 21.8833 41.0748 22.77C41.9148 23.6333 42.9298 24.065 44.1198 24.065C45.3098 24.065 46.3131 23.6333 47.1298 22.77C47.9698 21.9067 48.3898 20.7283 48.3898 19.235ZM69.5897 23.925V29H66.5447C64.3747 29 62.683 28.475 61.4697 27.425C60.2563 26.3517 59.6497 24.6133 59.6497 22.21V14.44H57.2697V9.47H59.6497V4.71H65.6347V9.47H69.5547V14.44H65.6347V22.28C65.6347 22.8633 65.7747 23.2833 66.0547 23.54C66.3347 23.7967 66.8013 23.925 67.4547 23.925H69.5897ZM75.9334 7.44C74.8834 7.44 74.0201 7.13667 73.3434 6.53C72.6901 5.9 72.3634 5.13 72.3634 4.22C72.3634 3.28667 72.6901 2.51667 73.3434 1.91C74.0201 1.28 74.8834 0.964998 75.9334 0.964998C76.9601 0.964998 77.8001 1.28 78.4534 1.91C79.1301 2.51667 79.4684 3.28667 79.4684 4.22C79.4684 5.13 79.1301 5.9 78.4534 6.53C77.8001 7.13667 76.9601 7.44 75.9334 7.44ZM78.9084 9.47V29H72.9234V9.47H78.9084ZM82.0557 19.235C82.0557 17.205 82.464 15.4317 83.2807 13.915C84.1207 12.3983 85.2757 11.2317 86.7457 10.415C88.239 9.59833 89.9424 9.19 91.8557 9.19C94.3057 9.19 96.3474 9.83167 97.9807 11.115C99.6374 12.3983 100.722 14.2067 101.236 16.54H94.8657C94.329 15.0467 93.2907 14.3 91.7507 14.3C90.654 14.3 89.779 14.7317 89.1257 15.595C88.4724 16.435 88.1457 17.6483 88.1457 19.235C88.1457 20.8217 88.4724 22.0467 89.1257 22.91C89.779 23.75 90.654 24.17 91.7507 24.17C93.2907 24.17 94.329 23.4233 94.8657 21.93H101.236C100.722 24.2167 99.6374 26.0133 97.9807 27.32C96.324 28.6267 94.2824 29.28 91.8557 29.28C89.9424 29.28 88.239 28.8717 86.7457 28.055C85.2757 27.2383 84.1207 26.0717 83.2807 24.555C82.464 23.0383 82.0557 21.265 82.0557 19.235Z" fill="#41A4F5"/>
<path d="M120.639 23.4L124.874 9.47H131.244L124.314 29H116.929L109.999 9.47H116.404L120.639 23.4ZM142.653 29.28C140.74 29.28 139.013 28.8717 137.473 28.055C135.957 27.2383 134.755 26.0717 133.868 24.555C133.005 23.0383 132.573 21.265 132.573 19.235C132.573 17.2283 133.017 15.4667 133.903 13.95C134.79 12.41 136.003 11.2317 137.543 10.415C139.083 9.59833 140.81 9.19 142.723 9.19C144.637 9.19 146.363 9.59833 147.903 10.415C149.443 11.2317 150.657 12.41 151.543 13.95C152.43 15.4667 152.873 17.2283 152.873 19.235C152.873 21.2417 152.418 23.015 151.508 24.555C150.622 26.0717 149.397 27.2383 147.833 28.055C146.293 28.8717 144.567 29.28 142.653 29.28ZM142.653 24.1C143.797 24.1 144.765 23.68 145.558 22.84C146.375 22 146.783 20.7983 146.783 19.235C146.783 17.6717 146.387 16.47 145.593 15.63C144.823 14.79 143.867 14.37 142.723 14.37C141.557 14.37 140.588 14.79 139.818 15.63C139.048 16.4467 138.663 17.6483 138.663 19.235C138.663 20.7983 139.037 22 139.783 22.84C140.553 23.68 141.51 24.1 142.653 24.1ZM159.058 7.44C158.008 7.44 157.145 7.13667 156.468 6.53C155.815 5.9 155.488 5.13 155.488 4.22C155.488 3.28667 155.815 2.51667 156.468 1.91C157.145 1.28 158.008 0.964998 159.058 0.964998C160.085 0.964998 160.925 1.28 161.578 1.91C162.255 2.51667 162.593 3.28667 162.593 4.22C162.593 5.13 162.255 5.9 161.578 6.53C160.925 7.13667 160.085 7.44 159.058 7.44ZM162.033 9.47V29H156.048V9.47H162.033ZM165.181 19.2C165.181 17.1933 165.554 15.4317 166.301 13.915C167.071 12.3983 168.109 11.2317 169.416 10.415C170.722 9.59833 172.181 9.19 173.791 9.19C175.074 9.19 176.241 9.45833 177.291 9.995C178.364 10.5317 179.204 11.255 179.811 12.165V3.1H185.796V29H179.811V26.2C179.251 27.1333 178.446 27.88 177.396 28.44C176.369 29 175.167 29.28 173.791 29.28C172.181 29.28 170.722 28.8717 169.416 28.055C168.109 27.215 167.071 26.0367 166.301 24.52C165.554 22.98 165.181 21.2067 165.181 19.2ZM179.811 19.235C179.811 17.7417 179.391 16.5633 178.551 15.7C177.734 14.8367 176.731 14.405 175.541 14.405C174.351 14.405 173.336 14.8367 172.496 15.7C171.679 16.54 171.271 17.7067 171.271 19.2C171.271 20.6933 171.679 21.8833 172.496 22.77C173.336 23.6333 174.351 24.065 175.541 24.065C176.731 24.065 177.734 23.6333 178.551 22.77C179.391 21.9067 179.811 20.7283 179.811 19.235Z" fill="black" fill-opacity="0.27"/>
</svg>
