<svg width="218" height="30" viewBox="0 0 218 30" fill="none" xmlns="http://www.w3.org/2000/svg">
<path d="M7.45596 24.485L0.350957 16.75L7.45596 9.015H14.981L7.84096 16.75L14.981 24.485H7.45596ZM18.6133 19.2C18.6133 17.1933 18.9866 15.4317 19.7333 13.915C20.5033 12.3983 21.5416 11.2317 22.8483 10.415C24.155 9.59833 25.6133 9.19 27.2233 9.19C28.5066 9.19 29.6733 9.45833 30.7233 9.995C31.7966 10.5317 32.6366 11.255 33.2433 12.165V3.1H39.2283V29H33.2433V26.2C32.6833 27.1333 31.8783 27.88 30.8283 28.44C29.8016 29 28.6 29.28 27.2233 29.28C25.6133 29.28 24.155 28.8717 22.8483 28.055C21.5416 27.215 20.5033 26.0367 19.7333 24.52C18.9866 22.98 18.6133 21.2067 18.6133 19.2ZM33.2433 19.235C33.2433 17.7417 32.8233 16.5633 31.9833 15.7C31.1666 14.8367 30.1633 14.405 28.9733 14.405C27.7833 14.405 26.7683 14.8367 25.9283 15.7C25.1116 16.54 24.7033 17.7067 24.7033 19.2C24.7033 20.6933 25.1116 21.8833 25.9283 22.77C26.7683 23.6333 27.7833 24.065 28.9733 24.065C30.1633 24.065 31.1666 23.6333 31.9833 22.77C32.8233 21.9067 33.2433 20.7283 33.2433 19.235ZM46.5682 7.44C45.5182 7.44 44.6549 7.13667 43.9782 6.53C43.3249 5.9 42.9982 5.13 42.9982 4.22C42.9982 3.28667 43.3249 2.51667 43.9782 1.91C44.6549 1.28 45.5182 0.964998 46.5682 0.964998C47.5949 0.964998 48.4349 1.28 49.0882 1.91C49.7649 2.51667 50.1032 3.28667 50.1032 4.22C50.1032 5.13 49.7649 5.9 49.0882 6.53C48.4349 7.13667 47.5949 7.44 46.5682 7.44ZM49.5432 9.47V29H43.5582V9.47H49.5432ZM62.6655 23.4L66.9004 9.47H73.2705L66.3404 29H58.9554L52.0254 9.47H58.4304L62.6655 23.4Z" fill="#41A4F5"/>
<path d="M82.0166 19.235C82.0166 17.205 82.425 15.4317 83.2416 13.915C84.0816 12.3983 85.2366 11.2317 86.7066 10.415C88.2 9.59833 89.9033 9.19 91.8166 9.19C94.2666 9.19 96.3083 9.83167 97.9416 11.115C99.5983 12.3983 100.683 14.2067 101.197 16.54H94.8266C94.29 15.0467 93.2516 14.3 91.7116 14.3C90.615 14.3 89.74 14.7317 89.0866 15.595C88.4333 16.435 88.1066 17.6483 88.1066 19.235C88.1066 20.8217 88.4333 22.0467 89.0866 22.91C89.74 23.75 90.615 24.17 91.7116 24.17C93.2516 24.17 94.29 23.4233 94.8266 21.93H101.197C100.683 24.2167 99.5983 26.0133 97.9416 27.32C96.285 28.6267 94.2433 29.28 91.8166 29.28C89.9033 29.28 88.2 28.8717 86.7066 28.055C85.2366 27.2383 84.0816 26.0717 83.2416 24.555C82.425 23.0383 82.0166 21.265 82.0166 19.235ZM110.383 3.1V29H104.398V3.1H110.383ZM113.53 19.2C113.53 17.1933 113.904 15.4317 114.65 13.915C115.42 12.3983 116.459 11.2317 117.765 10.415C119.072 9.59833 120.53 9.19 122.14 9.19C123.517 9.19 124.719 9.47 125.745 10.03C126.795 10.59 127.6 11.325 128.16 12.235V9.47H134.145V29H128.16V26.235C127.577 27.145 126.76 27.88 125.71 28.44C124.684 29 123.482 29.28 122.105 29.28C120.519 29.28 119.072 28.8717 117.765 28.055C116.459 27.215 115.42 26.0367 114.65 24.52C113.904 22.98 113.53 21.2067 113.53 19.2ZM128.16 19.235C128.16 17.7417 127.74 16.5633 126.9 15.7C126.084 14.8367 125.08 14.405 123.89 14.405C122.7 14.405 121.685 14.8367 120.845 15.7C120.029 16.54 119.62 17.7067 119.62 19.2C119.62 20.6933 120.029 21.8833 120.845 22.77C121.685 23.6333 122.7 24.065 123.89 24.065C125.08 24.065 126.084 23.6333 126.9 22.77C127.74 21.9067 128.16 20.7283 128.16 19.235ZM146.42 29.28C144.717 29.28 143.2 28.9883 141.87 28.405C140.54 27.8217 139.49 27.0283 138.72 26.025C137.95 24.9983 137.519 23.855 137.425 22.595H143.34C143.41 23.2717 143.725 23.82 144.285 24.24C144.845 24.66 145.534 24.87 146.35 24.87C147.097 24.87 147.669 24.73 148.065 24.45C148.485 24.1467 148.695 23.7617 148.695 23.295C148.695 22.735 148.404 22.3267 147.82 22.07C147.237 21.79 146.292 21.4867 144.985 21.16C143.585 20.8333 142.419 20.495 141.485 20.145C140.552 19.7717 139.747 19.2 139.07 18.43C138.394 17.6367 138.055 16.575 138.055 15.245C138.055 14.125 138.359 13.11 138.965 12.2C139.595 11.2667 140.505 10.5317 141.695 9.995C142.909 9.45833 144.344 9.19 146 9.19C148.45 9.19 150.375 9.79667 151.775 11.01C153.199 12.2233 154.015 13.8333 154.225 15.84H148.695C148.602 15.1633 148.299 14.6267 147.785 14.23C147.295 13.8333 146.642 13.635 145.825 13.635C145.125 13.635 144.589 13.775 144.215 14.055C143.842 14.3117 143.655 14.6733 143.655 15.14C143.655 15.7 143.947 16.12 144.53 16.4C145.137 16.68 146.07 16.96 147.33 17.24C148.777 17.6133 149.955 17.9867 150.865 18.36C151.775 18.71 152.569 19.2933 153.245 20.11C153.945 20.9033 154.307 21.9767 154.33 23.33C154.33 24.4733 154.004 25.5 153.35 26.41C152.72 27.2967 151.799 27.9967 150.585 28.51C149.395 29.0233 148.007 29.28 146.42 29.28ZM165.937 29.28C164.233 29.28 162.717 28.9883 161.387 28.405C160.057 27.8217 159.007 27.0283 158.237 26.025C157.467 24.9983 157.035 23.855 156.942 22.595H162.857C162.927 23.2717 163.242 23.82 163.802 24.24C164.362 24.66 165.05 24.87 165.867 24.87C166.613 24.87 167.185 24.73 167.582 24.45C168.002 24.1467 168.212 23.7617 168.212 23.295C168.212 22.735 167.92 22.3267 167.337 22.07C166.753 21.79 165.808 21.4867 164.502 21.16C163.102 20.8333 161.935 20.495 161.002 20.145C160.068 19.7717 159.263 19.2 158.587 18.43C157.91 17.6367 157.572 16.575 157.572 15.245C157.572 14.125 157.875 13.11 158.482 12.2C159.112 11.2667 160.022 10.5317 161.212 9.995C162.425 9.45833 163.86 9.19 165.517 9.19C167.967 9.19 169.892 9.79667 171.292 11.01C172.715 12.2233 173.532 13.8333 173.742 15.84H168.212C168.118 15.1633 167.815 14.6267 167.302 14.23C166.812 13.8333 166.158 13.635 165.342 13.635C164.642 13.635 164.105 13.775 163.732 14.055C163.358 14.3117 163.172 14.6733 163.172 15.14C163.172 15.7 163.463 16.12 164.047 16.4C164.653 16.68 165.587 16.96 166.847 17.24C168.293 17.6133 169.472 17.9867 170.382 18.36C171.292 18.71 172.085 19.2933 172.762 20.11C173.462 20.9033 173.823 21.9767 173.847 23.33C173.847 24.4733 173.52 25.5 172.867 26.41C172.237 27.2967 171.315 27.9967 170.102 28.51C168.912 29.0233 167.523 29.28 165.937 29.28ZM197.318 9.645V14.93H177.718V9.645H197.318ZM197.318 18.57V23.855H177.718V18.57H197.318ZM203.243 4.43H209.368L205.448 13.81H201.423L203.243 4.43ZM211.188 4.43H217.313L213.393 13.81H209.368L211.188 4.43Z" fill="black" fill-opacity="0.27"/>
</svg>
